# xmcd CD database file
#
# Track frame offsets:
#	150
#	19922
#	36505
#	50544
#	67478
#	83359
#	98959
#	115973
#	134517
#	153070
#	170598
#	186828
#	202390
#	219257
#	234425
#
# Disc length: 3311 seconds
#
# Revision: 0
# Processed by: cddbd v1.5.2PL0 Copyright (c) Steve Scherf et al.
# Submitted via: CDex 1.79
#
DISCID=da0ced0f
DTITLE=Steve Hofmeyer - If you could read my mind
DYEAR=1900
DGENRE=Country
TTITLE0=Heartache tonight
TTITLE1=The gambler
TTITLE2=Have you ever seen the rain
TTITLE3=Oh Sherrie
TTITLE4=Teach your children
TTITLE5=Games people play
TTITLE6=Photograph
TTITLE7=Hey Mr, dream-maker
TTITLE8=If I said you had a beautiful body
TTITLE9=If you could read my mind
TTITLE10=Drift away
TTITLE11=Gypsy woman
TTITLE12=To make you feel my love
TTITLE13=Rhinestone cowboy
TTITLE14=Cry to me
EXTD=
EXTT0=
EXTT1=
EXTT2=
EXTT3=
EXTT4=
EXTT5=
EXTT6=
EXTT7=
EXTT8=
EXTT9=
EXTT10=
EXTT11=
EXTT12=
EXTT13=
EXTT14=
PLAYORDER=
